<svg xmlns="http://www.w3.org/2000/svg" fill="none" viewBox="0 0 64 64"><path fill="#595bd4" fill-rule="evenodd" d="M42 12V2H18C9.16344 2 2 9.16344 2 18V46C2 54.8366 9.16344 62 18 62H46C54.8366 62 62 54.8366 62 46V20.6073C62 20.4039 61.9923 20.2013 61.9769 20H50C45.5817 20 42 16.4183 42 12ZM44.46 28.3668C45.2149 27.5605 45.1732 26.2948 44.3668 25.54C43.5605 24.7851 42.2948 24.8268 41.54 25.6332L28.0213 40.0736L22.46 34.1332C21.7052 33.3268 20.4395 33.2851 19.6332 34.04C18.8268 34.7948 18.7851 36.0605 19.54 36.8668L26.5612 44.3668C26.9394 44.7708 27.468 45 28.0213 45C28.5746 45 29.1032 44.7708 29.4813 44.3668L44.46 28.3668Z" class="color000000 svgShape" clip-rule="evenodd"/><path fill="#595bd4" d="M46 12V2.74211C46.7616 3.09519 47.4693 3.56888 48.0936 4.15156L59.4585 14.7589C59.8641 15.1374 60.2257 15.5537 60.5401 16H50C47.7909 16 46 14.2091 46 12Z" class="color000000 svgShape"/></svg>